HIERARCHY
ROOT hip
{
  OFFSET 0 0 0
  CHANNELS 6 Xposition Yposition Zposition Zrotation Yrotation Xrotation
  JOINT abdomen
  {
    OFFSET 0 20.6881 -0.73152
    CHANNELS 3 Zrotation Xrotation Yrotation
    JOINT chest
    {
      OFFSET 0 11.7043 -0.48768
      CHANNELS 3 Zrotation Xrotation Yrotation
      JOINT neck
      {
        OFFSET 0 22.1894 -2.19456
        CHANNELS 3 Zrotation Xrotation Yrotation
        JOINT head
        {
          OFFSET -0.24384 7.07133 1.2192
          CHANNELS 3 Zrotation Xrotation Yrotation
          JOINT leftEye
          {
            OFFSET 4.14528 8.04674 8.04672
            CHANNELS 3 Zrotation Xrotation Yrotation
            End Site
            {
              OFFSET 1 0 0
            }
          }
          JOINT rightEye
          {
            OFFSET -3.6576 8.04674 8.04672
            CHANNELS 3 Zrotation Xrotation Yrotation
            End Site
            {
              OFFSET 1 0 0
            }
          }
        }
      }
      JOINT rCollar
      {
        OFFSET -2.68224 19.2634 -4.8768
        CHANNELS 3 Zrotation Xrotation Yrotation
        JOINT rShldr
        {
          OFFSET -8.77824 -1.95073 1.46304
          CHANNELS 3 Zrotation Xrotation Yrotation
          JOINT rForeArm
          {
            OFFSET -28.1742 -1.7115 0.48768
            CHANNELS 3 Zrotation Xrotation Yrotation
            JOINT rHand
            {
              OFFSET -22.5879 0.773209 7.07136
              CHANNELS 3 Zrotation Xrotation Yrotation
              JOINT rThumb1
              {
                OFFSET -1.2192 -0.487915 3.41376
                CHANNELS 3 Zrotation Xrotation Yrotation
                JOINT rThumb2
                {
                  OFFSET -3.37035 -0.52449 3.41376
                  CHANNELS 3 Zrotation Xrotation Yrotation
                  End Site
                  {
                    OFFSET -1.78271 -1.18214 1.43049
                  }
                }
              }
              JOINT rIndex1
              {
                OFFSET -7.75947 0.938293 5.60832
                CHANNELS 3 Zrotation Xrotation Yrotation
                JOINT rIndex2
                {
                  OFFSET -2.54057 -0.884171 1.56538
                  CHANNELS 3 Zrotation Xrotation Yrotation
                  End Site
                  {
                    OFFSET -1.62519 -0.234802 1.16502
                  }
                }
              }
              JOINT rMid1
              {
                OFFSET -8.24714 1.18213 3.41376
                CHANNELS 3 Zrotation Xrotation Yrotation
                JOINT rMid2
                {
                  OFFSET -3.10165 -0.590103 1.0647
                  CHANNELS 3 Zrotation Xrotation Yrotation
                  End Site
                  {
                    OFFSET -2.48547 -0.328903 0.83742
                  }
                }
              }
              JOINT rRing1
              {
                OFFSET -8.82822 0.546677 1.51678
                CHANNELS 3 Zrotation Xrotation Yrotation
                JOINT rRing2
                {
                  OFFSET -2.60934 -0.819778 -0.0198488
                  CHANNELS 3 Zrotation Xrotation Yrotation
                  End Site
                  {
                    OFFSET -2.33842 -0.294052 0.168128
                  }
                }
              }
              JOINT rPinky1
              {
                OFFSET -8.27202 -0.0477905 -0.4584
                CHANNELS 3 Zrotation Xrotation Yrotation
                JOINT rPinky2
                {
                  OFFSET -1.82734 -0.647385 -0.700984
                  CHANNELS 3 Zrotation Xrotation Yrotation
                  End Site
                  {
                    OFFSET -1.69225 -0.51767 -0.607171
                  }
                }
              }
            }
          }
        }
      }
      JOINT lCollar
      {
        OFFSET 2.68224 19.2634 -4.8768
        CHANNELS 3 Zrotation Xrotation Yrotation
        JOINT lShldr
        {
          OFFSET 8.77824 -1.95073 1.46304
          CHANNELS 3 Zrotation Xrotation Yrotation
          JOINT lForeArm
          {
            OFFSET 28.1742 -1.7115 0.48768
            CHANNELS 3 Zrotation Xrotation Yrotation
            JOINT lHand
            {
              OFFSET 22.5879 0.773209 7.07136
              CHANNELS 3 Zrotation Xrotation Yrotation
              JOINT lThumb1
              {
                OFFSET 1.2192 -0.487915 3.41376
                CHANNELS 3 Zrotation Xrotation Yrotation
                JOINT lThumb2
                {
                  OFFSET 3.37035 -0.52449 3.41376
                  CHANNELS 3 Zrotation Xrotation Yrotation
                  End Site
                  {
                    OFFSET 1.78271 -1.18214 1.43049
                  }
                }
              }
              JOINT lIndex1
              {
                OFFSET 7.75947 0.938293 5.60832
                CHANNELS 3 Zrotation Xrotation Yrotation
                JOINT lIndex2
                {
                  OFFSET 2.54057 -0.884171 1.56538
                  CHANNELS 3 Zrotation Xrotation Yrotation
                  End Site
                  {
                    OFFSET 1.62519 -0.234802 1.16502
                  }
                }
              }
              JOINT lMid1
              {
                OFFSET 8.24714 1.18213 3.41376
                CHANNELS 3 Zrotation Xrotation Yrotation
                JOINT lMid2
                {
                  OFFSET 3.10165 -0.590103 1.0647
                  CHANNELS 3 Zrotation Xrotation Yrotation
                  End Site
                  {
                    OFFSET 2.48547 -0.328903 0.83742
                  }
                }
              }
              JOINT lRing1
              {
                OFFSET 8.82822 0.546677 1.51678
                CHANNELS 3 Zrotation Xrotation Yrotation
                JOINT lRing2
                {
                  OFFSET 2.60934 -0.819778 -0.0198488
                  CHANNELS 3 Zrotation Xrotation Yrotation
                  End Site
                  {
                    OFFSET 2.33842 -0.294052 0.168128
                  }
                }
              }
              JOINT lPinky1
              {
                OFFSET 8.27202 -0.0477905 -0.4584
                CHANNELS 3 Zrotation Xrotation Yrotation
                JOINT lPinky2
                {
                  OFFSET 1.82734 -0.647385 -0.700984
                  CHANNELS 3 Zrotation Xrotation Yrotation
                  End Site
                  {
                    OFFSET 1.69225 -0.51767 -0.607171
                  }
                }
              }
            }
          }
        }
      }
    }
  }
  JOINT rButtock
  {
    OFFSET -8.77824 4.35084 1.2192
    CHANNELS 3 Zrotation Xrotation Yrotation
    JOINT rThigh
    {
      OFFSET 0 -1.70687 -2.19456
      CHANNELS 3 Zrotation Xrotation Yrotation
      JOINT rShin
      {
        OFFSET 0 -36.8199 0.73152
        CHANNELS 3 Zrotation Xrotation Yrotation
        JOINT rFoot
        {
          OFFSET 0.73152 -45.1104 -5.12064
          CHANNELS 3 Zrotation Xrotation Yrotation
          End Site
          {
            OFFSET -1.1221 -3.69964 12.103
          }
        }
      }
    }
  }
  JOINT lButtock
  {
    OFFSET 8.77824 4.35084 1.2192
    CHANNELS 3 Zrotation Xrotation Yrotation
    JOINT lThigh
    {
      OFFSET 0 -1.70687 -2.19456
      CHANNELS 3 Zrotation Xrotation Yrotation
      JOINT lShin
      {
        OFFSET 0 -36.8199 0.73152
        CHANNELS 3 Zrotation Xrotation Yrotation
        JOINT lFoot
        {
          OFFSET -0.73152 -45.1104 -5.12064
          CHANNELS 3 Zrotation Xrotation Yrotation
          End Site
          {
            OFFSET 1.1221 -3.69964 12.103
          }
        }
      }
    }
  }
}
MOTION
Frames:	4
Frame Time:	0.03333
0.013497003354132175 -0.20446012914180756 0.046982165426015854 -17.18783676624298 -3.1571779400110245 0.2790764719247818 -0.9928521886467934 11.978541612625122 3.72189424932003 1.552016157656908 -8.745728731155396 1.2572205159813166 -3.7498418614268303 12.471392154693604 -3.388070873916149 8.425280526280403 -21.30108207464218 -5.230021253228188 0.16309423372149467 0.974305048584938 -0.1845933124423027 -0.30406560748815536 0.5711366795003414 0.25077715516090393 -0.6911046802997589 -0.5953464657068253 0.3603953495621681 39.02410537004471 24.3833988904953 8.616990074515343 -22.525105476379395 -24.7622287273407 54.61655616760254 -3.243420012295246 -8.088628426194191 -3.3386360853910446 0.2535084611736238 -0.45838549733161926 1.931188814342022 0.7041962910443544 0.7240795902907848 -0.4936220124363899 0.16854649409651756 0.3220635652542114 0.9049095958471298 7.18946747481823 4.117042310535908 0.507265068590641 -0.4002858744934201 -0.023130658082664013 0.8527894131839275 2.6756127923727036 1.6106584668159485 -0.07910136133432388 -1.3960948213934898 1.1080254055559635 -0.23104204796254635 9.275494515895844 0.5405479297041893 -0.41552111506462097 -0.8084818348288536 0.305143017321825 -0.1234214287251234 2.073678821325302 -1.1151237040758133 -1.7819258943200111 -0.36561811342835426 0.7113593816757202 0.23953710682690144 -47.728031873703 24.89405393600464 -23.013597428798676 19.739266633987427 -19.85346168279648 -51.07192575931549 3.9868659898638725 -10.664443597197533 2.3009946942329407 -0.6192077323794365 -0.12422697152942419 -0.06377320736646652 0.7618167623877525 -1.0086698457598686 -0.6983181461691856 -0.7739001139998436 0.6462785974144936 0.05009058862924576 -7.499545589089394 4.9880290031433105 -0.38748142775148153 -0.5863885581493378 0.26792988181114197 -0.633669700473547 -3.01611989736557 0.4776510503143072 -0.9226911328732967 -1.0968970879912376 0.4850702080875635 0.17766143660992384 -10.082034766674042 0.9628280438482761 -0.622501652687788 -1.0491430386900902 -0.30967955477535725 0.1299039926379919 -3.0313193053007126 -0.2390255592763424 0.35638066940009594 0.09962836978957057 0.12606047093868256 -0.8424778282642365 -28.384747803211212 -28.23752671480179 -22.146926075220108 -17.263036519289017 52.29739487171173 20.44954776763916 -4.758703485131264 -10.03521278500557 -8.1133583933115 -1.084717009216547 -1.1696292087435722 0.718699749559164 32.164583802223206 -29.855496883392334 26.40461504459381 20.597192645072937 53.1479287147522 -16.400152444839478 5.56578554213047 -9.756331443786621 10.5938009172678
0.008301612921059132 -0.6752114295959473 0.14218779280781746 -20.885028541088104 -1.5152053534984589 4.063285812735558 -2.676014117896557 14.348510652780533 4.175598621368408 2.7776683308184147 -9.761378020048141 0.9663796238601208 -5.0008513033390045 15.38787066936493 -3.4333787485957146 8.377650529146194 -25.01353293657303 -5.217680409550667 -0.3954390808939934 -0.32171186059713364 0.008788341656327248 -0.27667874470353127 -0.3755582123994827 0.18713707337155938 -0.09809374809265137 0.06535336375236511 -0.08697356097400188 49.52618479728699 30.5297988653183 12.09034413099289 -24.38466489315033 -30.386815667152405 66.660715341568 -5.555729605257511 -13.19356620311737 -5.030662044882774 -0.0016906298696994781 0.09340491145849228 0.05349598824977875 0.27977049350738525 0.6015615630894899 0.1721041090786457 -0.13682149350643158 -0.1623919978737831 -0.06701331585645676 7.58550301194191 5.482978373765945 0.1480810297653079 -0.23241651244461536 0.15807540155947208 0.2381707727909088 2.970893159508705 1.1546463891863823 0.3823928162455559 0.3039150685071945 0.17510432749986649 0.33087730407714844 10.43561227619648 0.5408889055252075 0.41676800698041916 0.12303963303565979 -0.21381547674536705 0.213205274194479 2.5059357471764088 -0.8514195587486029 -0.6801736727356911 0.030938442796468735 -0.029199868440628052 -0.005410308949649334 -60.06831765174866 30.7527494430542 -24.482603073120117 22.708423733711243 -26.299598515033722 -61.0282963514328 5.971662104129791 -10.203969329595566 2.880910076200962 0.03743860870599747 -0.23509247694164515 -0.07384360302239656 0.08624458685517311 -0.05039166659116745 0.2900741994380951 0.048501379787921906 0.17533667385578156 -0.46175502240657806 -7.657895162701607 5.5918267741799355 -0.3034497471526265 -0.33965667709708214 0.08140923455357552 0.4250624030828476 -3.186326175928116 1.0261580999940634 -0.3690134547650814 0.43148159980773926 -0.12588411569595337 -0.143264913931489 -10.324463546276093 0.24797290563583374 -0.07373644039034843 -0.31226176768541336 -0.05709308199584484 -0.2348838932812214 -2.190168835222721 -0.7400234788656235 0.23444250226020813 -0.014883431140333414 0.049307928420603275 -0.07459726184606552 -34.21962797641754 -34.12299603223801 -29.38393771648407 -22.507917881011963 62.976282835006714 21.93458765745163 -4.753733351826668 -10.626651272177696 -10.246574208140373 -0.24337660521268845 -0.14741789549589157 0.28076089918613434 41.494497656822205 -33.869476318359375 35.86352437734604 24.161762595176697 63.94042432308197 -23.633150160312653 5.358221456408501 -10.877144783735275 13.371970653533936
0.23433708865195513 -1.7283072471618652 2.4618928022682667 -7.505046129226685 11.485583782196045 -0.47691620886325836 -7.314135879278183 23.41160774230957 5.454604625701904 4.24568809568882 -10.57411216199398 -0.6658765766769648 -6.171776354312897 14.906459748744965 -8.21677029132843 12.369154393672943 -23.85007917881012 -11.478046774864197 0.016248319298028946 2.704443521797657 0.17168685793876648 -0.019125156104564667 0.4010596498847008 0.4701796732842922 -0.7979327067732811 0.2585267275571823 1.556829884648323 29.740996062755585 19.233208894729614 39.855627715587616 -27.490979433059692 -30.06447046995163 65.21807312965393 1.8184636160731316 -3.7029343843460083 -3.543749302625656 0.28043672908097506 0.5767139978706837 -1.446407362818718 -1.7372513562440872 -0.7134811766445637 1.1432815343141556 0.7097473740577698 -0.45536449179053307 0.3794923424720764 7.6702554523944855 6.4189861714839935 0.30086422339081764 -0.2744550257921219 0.4094946105033159 -1.9300981611013412 3.504226952791214 1.6476203128695488 -0.32339712604880333 -2.241957262158394 1.1425122432410717 -0.31736383214592934 11.534319519996643 0.5883962754160166 0.21942313760519028 -1.7639034613966942 -0.3371179662644863 -0.42825624346733093 2.0616839826107025 -0.3128422982990742 -1.8920141458511353 0.10416073724627495 -1.2014982104301453 -0.6574050709605217 -48.929200172424316 41.57670736312866 -31.902424693107605 30.591811537742615 -36.58994972705841 -67.01148390769958 -3.499843217432499 -20.55413782596588 6.1521077156066895 1.0208497568964958 0.2713696891441941 -2.2114754654467106 0.2575056441128254 0.8939829468727112 0.8676312491297722 1.354319080710411 -0.09178334847092628 0.2436218596994877 -8.111065775156021 4.869831092655659 -0.2813007356598973 1.6766936145722866 0.723381545394659 1.2246765196323395 -3.2371345907449722 0.9769088868051767 0.6824206933379173 -2.428756356239319 0.6602638028562069 -0.6510892231017351 -11.608894318342209 0.3590797260403633 1.4969177171587944 0.6528117880225182 -0.3853082098066807 0.01602829433977604 -4.221805036067963 -2.32988141477108 -0.6236761249601841 1.304490678012371 0.7627295516431332 -0.15524458140134811 -43.18640023469925 -46.89270615577698 -40.83863854408264 -61.796244978904724 63.1394898891449 49.200178384780884 -3.9963995665311813 -1.2445704638957977 -9.785471633076668 0.10562069714069366 0.47547318041324615 1.2228886596858501 22.232261896133423 -30.960001051425934 15.589674711227417 19.686046242713928 58.39388966560364 -16.322759985923767 5.633178725838661 -8.699480071663857 18.500134348869324
0.4756897510960698 -4.6728973388671875 4.261009652167559 -27.662233114242554 17.566940188407898 -11.692923903465271 -4.696136601269245 22.78688371181488 4.710289612412453 5.369991660118103 -10.776409730315208 1.85099545866251 -4.21571072191 15.339867174625397 -11.442779749631882 13.924064487218857 -23.357692658901215 -18.018331825733185 0.7863440550863743 0.46750735491514206 -0.7241382636129856 -1.8400128185749054 0.1458759605884552 0.4786480776965618 -1.152706816792488 0.24673372507095337 -0.3891678247600794 23.690176606178284 11.548355519771576 43.067487180233 -22.79187798500061 -24.21134054660797 54.22884821891785 8.4524667263031 4.254346266388893 1.967973131686449 1.5689035132527351 0.017404351383447647 1.063915640115738 0.6160024926066399 -0.6905248621478677 0.03874015063047409 2.4956372380256653 1.4166718907654285 0.9261882305145264 8.39255154132843 5.3541149944067 -0.16798021271824837 -0.36499466747045517 -0.740499822422862 -1.2342637404799461 2.510541770607233 1.7607062682509422 0.8830737322568893 -2.9552216827869415 -1.7408059537410736 -3.1688421964645386 11.878744661808014 0.1425702217966318 1.0243963077664375 -3.2062794640660286 0.028025228530168533 -0.18920369446277618 2.835274301469326 0.36172891035676 0.701916329562664 -2.2869652323424816 1.0456482879817486 1.3433246221393347 -53.22443604469299 43.94161105155945 -6.0576483607292175 24.09802794456482 -38.08051496744156 -72.69737005233765 -1.0485536232590675 -36.97801977396011 7.677150070667267 0.23422088474035263 3.2932115346193314 2.3528664372861385 0.729877520352602 2.600882090628147 0.3791382908821106 -1.0647189617156982 0.9950103610754013 -1.1128510348498821 -9.387834817171097 5.980023890733719 0.002916860394179821 -0.5554464273154736 1.7381446994841099 -2.8240106999874115 -3.4526993706822395 -0.17489519901573658 0.5227635428309441 -1.5304101258516312 0.12285606935620308 0.8844436705112457 -12.551130205392838 -0.4250503331422806 -0.6589272245764732 -0.12511733919382095 -0.7552552409470081 0.1484281662851572 -1.6357079520821571 0.06769124418497086 0.03376951441168785 0.14794895192608237 0.8907701633870602 -1.8619978800415993 -67.58645296096802 -41.20899260044098 -54.52047944068909 -82.55128562450409 61.49523675441742 81.4290064573288 -2.272849939763546 3.87436643242836 -1.820173691958189 -1.279895156621933 0.051972828805446625 0.9125111438333988 12.796800434589386 -17.73887112736702 6.0964954644441605 9.420015960931778 48.07974994182587 1.3395764864981174 6.71800822019577 -11.477150917053223 19.835771173238754
